<svg width="158" height="120" viewBox="0 0 158 120" fill="none" xmlns="http://www.w3.org/2000/svg">
<path d="M124.399 67.0959C115.229 68.1596 97.0336 80.151 110.807 93.9778H110.809C113.59 96.7704 115.999 101.544 115.812 105.758C115.447 113.978 108.456 120.347 100.192 119.985C92.4347 119.646 86.3161 113.494 85.8974 105.941C83.6357 86.0401 53.5899 81.7772 41.0848 94.185C38.204 97.3545 34.0277 99.2156 29.405 99.0123C21.1634 98.6531 14.7789 91.7042 15.142 83.4942C15.3959 77.7551 19.7131 72.6751 25.4112 71.7002C40.0987 70.0168 51.9393 53.9007 44.0409 40.1706C42.4696 37.4392 41.2316 34.4117 41.3824 31.0212C41.7097 23.644 47.3741 17.7588 54.4966 16.9023C61.2264 15.8701 65.1071 10.9619 68.7358 6.33783C71.567 2.32163 76.3346 -0.21637 81.6219 0.0145369C89.8615 0.375699 96.246 7.32461 95.8829 15.5326C95.7341 18.9134 94.3294 21.8757 92.4447 24.3939C90.8396 26.5392 89.1155 29.5449 89.1274 33.1112C89.1492 39.6456 95.8254 45.7558 102.502 46.4643C106.62 46.9004 112.531 45.9511 116.122 43.0105C120.661 39.2924 123.099 38.2483 128.05 38.4062C136.329 38.6707 141.313 46.109 140.868 53.3441C140.362 61.5561 133.567 65.9453 124.399 67.0959Z" fill="#FF6700"/>
<path d="M34.9304 32.3671C34.9304 36.5537 31.5186 39.9476 27.3099 39.9476C23.1011 39.9476 19.6893 36.5537 19.6893 32.3671C19.6893 28.1806 23.1011 24.7867 27.3099 24.7867C31.5186 24.7867 34.9304 28.1806 34.9304 32.3671Z" fill="#FF6700"/>
<path d="M73.2157 49.1937C71.5729 49.1937 70.2436 50.52 70.2436 52.1541L70.2516 71.6568H76.1976L76.1897 52.1501C76.1897 50.516 74.8564 49.1937 73.2157 49.1937Z" fill="white"/>
<path fill-rule="evenodd" clip-rule="evenodd" d="M109.065 64.5421L109.077 64.55L109.069 52.1501C109.069 50.516 107.735 49.1937 106.093 49.1937C104.452 49.1937 103.121 50.52 103.123 52.1541V56.9893C102.517 56.8393 101.883 56.7584 101.232 56.7584C99.0791 56.7584 97.1011 57.6346 95.6924 59.0398C94.2798 60.4391 93.3969 62.4067 93.3989 64.55C93.3989 66.6913 94.2798 68.659 95.6924 70.0582C96.5931 70.9601 98.5295 72.3416 101.23 72.3416C103.932 72.3416 105.866 70.9601 106.769 70.0582C108.182 68.657 109.065 66.6893 109.065 64.548V64.5421ZM101.232 68.0511C100.19 68.0511 99.345 66.4801 99.345 64.5421C99.345 62.6041 100.19 61.0331 101.232 61.0331C102.273 61.0331 103.119 62.6041 103.119 64.5421C103.119 66.4801 102.273 68.0511 101.232 68.0511Z" fill="white"/>
<path fill-rule="evenodd" clip-rule="evenodd" d="M112.114 59.026C113.521 57.6208 115.499 56.7446 117.651 56.7446L117.655 56.7465C119.832 56.7446 121.701 57.6011 123.169 59.0753C125.693 61.6114 125.06 65.3572 125.06 65.3572H115.83C115.913 65.967 116.082 66.5038 116.32 66.9499C116.671 67.5932 117.124 67.9761 117.653 67.9761C118.919 67.9761 119.653 66.1348 119.653 66.1348H124.952C124.952 66.1348 124.875 68.13 123.238 69.999C121.939 71.2956 120.014 72.3278 117.689 72.3278C115.427 72.3278 113.487 71.4121 112.114 70.0464C110.701 68.6451 109.819 66.6795 109.819 64.5362C109.819 62.3929 110.701 60.4253 112.114 59.026ZM115.928 63.1448L119.371 63.135C119.302 62.8034 119.157 62.3021 118.997 62.014C118.624 61.3449 118.187 60.968 117.651 60.966C117.122 60.968 116.584 61.4278 116.318 61.9923C116.179 62.2898 116.035 62.6897 115.928 63.1448Z" fill="white"/>
<path d="M150.167 56.7505C148.015 56.7505 146.036 57.6267 144.628 59.0319C143.215 60.4331 142.332 62.3988 142.334 64.5421V71.6588H148.28V64.6625C148.28 63.8099 148.487 63.0817 148.834 62.5172C149.185 61.9607 149.637 61.6311 150.167 61.6291C150.697 61.6311 151.151 61.9607 151.5 62.5172C151.846 63.0817 152.052 63.8099 152.054 64.6625V71.6588H158V64.5421C158 62.3988 157.119 60.4331 155.706 59.0319C154.298 57.6267 152.322 56.7485 150.167 56.7505Z" fill="white"/>
<path fill-rule="evenodd" clip-rule="evenodd" d="M133.767 56.7505C129.442 56.7505 125.935 60.2398 125.935 64.5421C125.935 68.8445 129.442 72.3337 133.767 72.3337C138.093 72.3337 141.6 68.8445 141.6 64.5421C141.6 60.2398 138.093 56.7505 133.767 56.7505ZM133.767 68.0511C132.726 68.0511 131.881 66.4802 131.881 64.5421C131.881 62.6041 132.726 61.0331 133.767 61.0331C134.809 61.0331 135.654 62.6041 135.654 64.5421C135.654 66.4802 134.809 68.0511 133.767 68.0511Z" fill="white"/>
<path fill-rule="evenodd" clip-rule="evenodd" d="M77.019 64.5421C77.019 60.2398 80.5267 56.7505 84.8518 56.7505C89.1769 56.7505 92.6847 60.2398 92.6847 64.5421C92.6847 68.8445 89.1769 72.3337 84.8518 72.3337C80.5267 72.3337 77.019 68.8445 77.019 64.5421ZM82.965 64.5421C82.965 66.4802 83.8102 68.0511 84.8518 68.0511C85.8934 68.0511 86.7386 66.4802 86.7386 64.5421C86.7386 62.6041 85.8934 61.0331 84.8518 61.0331C83.8102 61.0331 82.965 62.6041 82.965 64.5421Z" fill="white"/>
<path fill-rule="evenodd" clip-rule="evenodd" d="M56.4548 59.026C57.8614 57.6208 59.8395 56.7446 61.9921 56.7446L61.9961 56.7465C64.1726 56.7446 66.0415 57.6011 67.5096 59.0753C70.0313 61.6114 69.4004 65.3572 69.4004 65.3572H60.1708C60.2542 65.967 60.4228 66.5038 60.6609 66.9499C61.012 67.5932 61.4644 67.9761 61.9941 67.9761C63.2599 67.9761 63.994 66.1348 63.994 66.1348H69.2933C69.2933 66.1348 69.2159 68.13 67.5791 69.999C66.2796 71.2956 64.3551 72.3278 62.0298 72.3278C59.7681 72.3278 57.8277 71.4121 56.4548 70.0464C55.0422 68.6451 54.1593 66.6795 54.1593 64.5362C54.1593 62.3929 55.0422 60.4253 56.4548 59.026ZM60.2685 63.1448L63.7123 63.135C63.6428 62.8034 63.498 62.3021 63.3373 62.014C62.9643 61.3449 62.5278 60.968 61.9921 60.966C61.4624 60.968 60.9247 61.4278 60.6589 61.9923C60.5202 62.2898 60.3756 62.6897 60.2685 63.1448Z" fill="white"/>
<path d="M55.0224 70.6246C55.0224 70.4273 54.9628 70.2437 54.8656 70.0858L51.6099 65.1874L53.8637 61.116C54.697 59.7088 54.2268 57.8971 52.8122 57.0662C51.3976 56.2373 49.5743 56.7051 48.741 58.1122L46.0487 62.9001V59.7088C46.0487 58.0767 44.7175 56.7505 43.0747 56.7505C41.4319 56.7505 40.1007 58.0747 40.1007 59.7088V71.6607H46.0467V66.9814L49.1834 71.6588H53.9827C54.5541 71.6588 55.0184 71.195 55.0184 70.6266L55.0224 70.6246Z" fill="white"/>
<path d="M31.3829 68.055C31.9127 68.0531 32.365 67.6722 32.7162 67.0288V67.0268C32.9721 66.5453 33.1507 65.9552 33.2261 65.2822H39.1781C38.9241 67.9583 37.452 69.6438 36.456 70.4825C35.093 71.639 33.3094 72.3436 31.381 72.3436C28.8156 72.3436 26.9269 71.1397 25.8416 70.0602C24.429 68.6589 23.5481 66.6913 23.5481 64.55C23.5461 62.4067 24.429 60.441 25.8416 59.0398C27.2503 57.6346 29.2283 56.7584 31.381 56.7584C33.5356 56.7564 35.5117 57.6346 36.9203 59.0398C38.1702 60.2792 39.0035 61.9607 39.1781 63.8158H33.2261C33.1507 63.1428 32.9721 62.5547 32.7162 62.0712C32.365 61.4278 31.9127 61.0489 31.3829 61.0449C30.8532 61.0489 30.4009 61.4278 30.0497 62.0712C29.7045 62.7244 29.4981 63.5652 29.4981 64.55C29.4981 65.5368 29.7045 66.3775 30.0497 67.0288C30.4009 67.6722 30.8532 68.055 31.3829 68.055Z" fill="white"/>
<path d="M22.0641 54.8342C22.6633 54.2401 23.0323 53.4171 23.0323 52.5093C23.0323 51.6015 22.6633 50.7785 22.0641 50.1844C21.4669 49.5884 20.6396 49.2213 19.7269 49.2213C18.8143 49.2213 17.989 49.5884 17.3898 50.1844C16.7906 50.7785 16.4216 51.6015 16.4216 52.5093C16.4216 53.4171 16.7906 54.2401 17.3898 54.8342L18.1199 55.5604C19.3381 56.7722 19.4254 57.0939 18.2667 58.2464L17.6041 58.9076C17.0585 59.4483 16.7232 60.1963 16.7232 61.0213V71.6568H22.7327V61.0213C22.7327 60.1963 22.3954 59.4483 21.8538 58.9076L21.1892 58.2464C20.0305 57.0939 20.1158 56.7722 21.334 55.5604L22.0641 54.8342Z" fill="white"/>
<path d="M2.29351 59.0319C3.70215 57.6267 5.6802 56.7505 7.83284 56.7505C9.98747 56.7485 11.9635 57.6267 13.3722 59.0319C14.7848 60.4331 15.6657 62.3988 15.6657 64.5421V71.6588H9.71963V64.6625C9.71765 63.8099 9.51131 63.0817 9.16609 62.5172C8.81691 61.9607 8.36257 61.6311 7.83284 61.6291C7.30311 61.6311 6.85076 61.9607 6.49959 62.5172C6.15239 63.0817 5.94606 63.8099 5.94606 64.6625V71.6588H0V64.5421C0 62.3988 0.880897 60.4331 2.29351 59.0319Z" fill="white"/>
</svg>
